<?xml version="1.0" encoding="UTF-8"?>
<svg width="1440px" height="820px" viewBox="0 0 1440 820" version="1.1" xmlns="http://www.w3.org/2000/svg" xmlns:xlink="http://www.w3.org/1999/xlink">
    <!-- Generator: Sketch 45.2 (43514) - http://www.bohemiancoding.com/sketch -->
    <title>Group Copy 3</title>
    <desc>Created with Sketch.</desc>
    <defs>
        <rect id="path-1" x="0" y="0" width="1440" height="820"></rect>
    </defs>
    <g id="Portfolio" stroke="none" stroke-width="1" fill="none" fill-rule="evenodd">
        <g id="Desktop-HD-Copy-10">
            <g id="Group-Copy-3">
                <mask id="mask-2" fill="white">
                    <use xlink:href="#path-1"></use>
                </mask>
                <use id="Mask" fill="#000000" xlink:href="#path-1"></use>
                <g opacity="0.08" mask="url(#mask-2)" stroke="#FFFFFF" stroke-width="2">
                    <g transform="translate(-1007.000000, -1653.000000)">
                        <path d="M1292.29765,1665.38381 C1582.61619,1665.38381 1665.38381,1582.57856 1665.38381,1292.29765 C1665.38381,1002.01674 1582.61619,919.211488 1292.29765,919.211488 C1001.97911,919.211488 919.211488,1002.01674 919.211488,1292.29765 C919.211488,1582.57856 1001.97911,1665.38381 1292.29765,1665.38381 Z" id="Shape-Copy-3"></path>
                        <path d="M1295.69843,1706.19321 C1615.10406,1706.19321 1706.19321,1615.06266 1706.19321,1295.69843 C1706.19321,976.334209 1615.10406,885.203655 1295.69843,885.203655 C976.292805,885.203655 885.203655,976.334209 885.203655,1295.69843 C885.203655,1615.06266 976.292805,1706.19321 1295.69843,1706.19321 Z" id="Shape-Copy-4"></path>
                        <path d="M1295.69843,1747.00261 C1646.83544,1747.00261 1747.00261,1646.7899 1747.00261,1295.69843 C1747.00261,944.606962 1646.83544,844.394256 1295.69843,844.394256 C944.561432,844.394256 844.394256,944.606962 844.394256,1295.69843 C844.394256,1646.7899 944.561432,1747.00261 1295.69843,1747.00261 Z" id="Shape-Copy-5"></path>
                        <path d="M1292.29765,1787.81201 C1677.81031,1787.81201 1787.81201,1677.76031 1787.81201,1292.29765 C1787.81201,906.834995 1677.81031,796.78329 1292.29765,796.78329 C906.784994,796.78329 796.78329,906.834995 796.78329,1292.29765 C796.78329,1677.76031 906.784994,1787.81201 1292.29765,1787.81201 Z" id="Shape-Copy-6"></path>
                        <path d="M1295.69843,1842.22454 C1720.87531,1842.22454 1842.22454,1720.82015 1842.22454,1295.69843 C1842.22454,870.576719 1720.87531,749.172324 1295.69843,749.172324 C870.52156,749.172324 749.172324,870.576719 749.172324,1295.69843 C749.172324,1720.82015 870.52156,1842.22454 1295.69843,1842.22454 Z" id="Shape-Copy-7"></path>
                        <path d="M1295.69843,1896.63708 C1763.1838,1896.63708 1896.63708,1763.12314 1896.63708,1295.69843 C1896.63708,828.273723 1763.1838,694.759791 1295.69843,694.759791 C828.213062,694.759791 694.759791,828.273723 694.759791,1295.69843 C694.759791,1763.12314 828.213062,1896.63708 1295.69843,1896.63708 Z" id="Shape-Copy-8"></path>
                        <path d="M1295.69843,1957.85117 C1810.78086,1957.85117 1957.85117,1810.71401 1957.85117,1295.69843 C1957.85117,780.682853 1810.78086,633.545692 1295.69843,633.545692 C780.616002,633.545692 633.545692,780.682853 633.545692,1295.69843 C633.545692,1810.71401 780.616002,1957.85117 1295.69843,1957.85117 Z" id="Shape-Copy-9"></path>
                        <path d="M1295.69843,2025.86684 C1863.66649,2025.86684 2025.86684,1863.59276 2025.86684,1295.69843 C2025.86684,727.804107 1863.66649,565.530026 1295.69843,565.530026 C727.73038,565.530026 565.530026,727.804107 565.530026,1295.69843 C565.530026,1863.59276 727.73038,2025.86684 1295.69843,2025.86684 Z" id="Shape-Copy-10"></path>
                        <path d="M1295.69843,2100.68407 C1921.84067,2100.68407 2100.68407,1921.75938 2100.68407,1295.69843 C2100.68407,669.637488 1921.84067,490.712794 1295.69843,490.712794 C669.556195,490.712794 490.712794,669.637488 490.712794,1295.69843 C490.712794,1921.75938 669.556195,2100.68407 1295.69843,2100.68407 Z" id="Shape-Copy-11"></path>
                        <path d="M1295.69843,2182.30287 C1985.30342,2182.30287 2182.30287,1985.21387 2182.30287,1295.69843 C2182.30287,606.182994 1985.30342,409.093995 1295.69843,409.093995 C606.093449,409.093995 409.093995,606.182994 409.093995,1295.69843 C409.093995,1985.21387 606.093449,2182.30287 1295.69843,2182.30287 Z" id="Shape-Copy-12"></path>
                        <path d="M1295.69843,2270.72324 C2054.05473,2270.72324 2270.72324,2053.95624 2270.72324,1295.69843 C2270.72324,537.440625 2054.05473,320.673629 1295.69843,320.673629 C537.34214,320.673629 320.673629,537.440625 320.673629,1295.69843 C320.673629,2053.95624 537.34214,2270.72324 1295.69843,2270.72324 Z" id="Shape-Copy-13"></path>
                        <path d="M1299.09922,2372.74674 C2134.13966,2372.74674 2372.74674,2134.03121 2372.74674,1299.09922 C2372.74674,464.167228 2134.13966,225.451697 1299.09922,225.451697 C464.058771,225.451697 225.451697,464.167228 225.451697,1299.09922 C225.451697,2134.03121 464.058771,2372.74674 1299.09922,2372.74674 Z" id="Shape-Copy-14"></path>
                        <path d="M1299.09922,2481.5718 C2218.75666,2481.5718 2481.5718,2218.6372 2481.5718,1299.09922 C2481.5718,379.561236 2218.75666,116.626632 1299.09922,116.626632 C379.441775,116.626632 116.626632,379.561236 116.626632,1299.09922 C116.626632,2218.6372 379.441775,2481.5718 1299.09922,2481.5718 Z" id="Shape-Copy-15"></path>
                        <path d="M1302.5,2604 C2314.70728,2604 2604,2314.57578 2604,1302.5 C2604,290.424216 2314.70728,1 1302.5,1 C290.292719,1 1,290.424216 1,1302.5 C1,2314.57578 290.292719,2604 1302.5,2604 Z" id="Shape-Copy-16"></path>
                    </g>
                </g>
            </g>
        </g>
    </g>
</svg>